<svg xmlns="http://www.w3.org/2000/svg" xmlns:xlink="http://www.w3.org/1999/xlink" version="1.1" width="1000" height="1000" viewBox="0 0 1000 1000">
    <g transform="scale(8) translate(10, 10)">
        <defs id="SvgjsDefs2843"/>
        <g id="SvgjsG2844" featureKey="aTNdJx-0" transform="matrix(7.373674461577003,0,0,7.373674461577003,-10.323144949416198,-44.389523634093855)" fill="#2196f3">
            <path d="M7.26 20 c-1.94 0 -3.42 -0.5 -4.4 -1.5 c-0.96 -0.96 -1.46 -2.38 -1.46 -4.06 l0 -8.42 l3.4 0 l0 8.42 c0 1.52 0.74 2.16 2.36 2.16 c1.58 0 2.44 -0.78 2.44 -2.16 l0 -8.42 l2.06 0 l0 8.42 c0 1.06 -0.28 2.06 -0.82 2.78 c-0.72 0.98 -1.86 1.44 -3.62 1.44 c-1.02 0 -1.84 -0.14 -2.46 -0.44 c-1.26 -0.58 -2.02 -1.88 -2.02 -3.78 l0 -7.14 l0.72 0 l0 7.14 c0 2.26 1.3 3.5 3.76 3.5 s3.72 -1.24 3.72 -3.5 l0 -7.7 l-0.62 0 l0 7.7 c0 1.76 -1.18 2.88 -3.16 2.88 c-2 0 -3.06 -1.02 -3.06 -2.88 l0 -7.7 l-1.98 0 l0 7.7 c0 3.18 1.76 4.84 5.14 4.84 c1.76 0 2.96 -0.42 3.78 -1.28 s1.26 -2.1 1.26 -3.56 l0 -8.42 l0.72 0 l0 8.42 c0 1.68 -0.52 3.08 -1.48 4.06 c-0.96 1 -2.38 1.5 -4.28 1.5 z"/>
        </g>
    </g>
</svg>
