<svg version="1" xmlns="http://www.w3.org/2000/svg" width="1333.333" height="1333.333" viewBox="0 0 1000.000000 1000.000000"><path d="M152 83c-.5.3-.8 116.7-.7 258.8.1 171.6-.1 258.2-.8 258.2-.6 0-.6.3.1.8.6.4 1.1 2.9 1.2 5.7.2 10 2.1 30.8 3.8 42 .4 2.2.8 5 .9 6.2.3 2 1.7 9.8 2 11.3.1.3.5 2.5 1 5s.9 4.7 1 5c1 4.3 1.6 7.1 2 9.9.3 1.9.9 3.9 1.3 4.5.3.6.8 2 1 3.1.5 2.8 1 5 1.2 5.2.2.2.4.7.5 1.3.1.5.4 1.3.5 1.7.1.5.2 1.2.1 1.7-.1.4.2 1.3.7 2 .6.6 1.3 2.7 1.7 4.6.4 1.9 1.2 4.1 1.7 4.8.6.6.8 1.2.5 1.2-.4 0 3.3 10 9.3 25 2.5 6.1 15.6 31.6 17 33 .6.6 2.9 4.6 4.8 8.3.7 1.5 1.8 2.7 2.3 2.7.5 0 .9.4.9 1 0 .9 5 8.4 8.7 13 12.2 15.5 14.1 17.6 25 28.4 7.9 7.8 14.3 13.6 19.1 17.3 1.3 1 3.5 2.8 5 4.1 4.7 4 26.2 18.3 26.2 17.5 0-.4.4-.3.8.3.8 1.2 22.6 12.6 31.2 16.3 11.7 5 13.8 5.9 23 9 5.2 1.8 10.2 3.6 11 3.9.8.3 2.6.7 4 .9 1.3.2 2.7.7 3 1.1.3.4 1.4.8 2.5 1 1.1.2 6.5 1.5 12 2.9 10.7 2.7 12.4 3 17 3.8 1.7.3 7.7 1.4 13.5 2.4 5.8 1.1 13.2 2.3 16.5 2.7 3.3.3 7.1.8 8.5 1 8.5 1 19 1.9 35 2.9 7.9.6 54.7.6 64 .1 8.6-.5 23.2-1.7 26.8-2.2 1.9-.3 5.5-.7 8-.9 2.6-.2 4.8-.5 5-.6.1-.1 1.6-.3 3.2-.4 1.7-.1 3.1-.4 3.3-.5.2-.2 3.1-.6 10.2-1.5 1.7-.2 3-.4 3-.5 0-.1 1-.3 2.3-.6 1.2-.2 3.2-.6 4.5-.8 1.2-.3 2.3-.5 2.5-.7.1-.1 1.1-.3 2.2-.4 1.1-.1 2.1-.3 2.3-.5.1-.1 1.1-.3 2.2-.5 4.9-1 7.3-1.5 11-2.5 4.4-1.2 5.6-1.5 10-2.5 1.7-.4 3.6-1.2 4.3-1.8.6-.5 1.2-.7 1.2-.4 0 .8 22.3-6.9 33.7-11.7 2.3-1 4.5-1.7 4.9-1.6.4.1 1-.3 1.4-1 .4-.6 1.3-1.3 2.1-1.4 2.3-.4 7.3-3 8.1-4.1.4-.5.8-.6.8-.2 0 .5 1.2 0 2.8-1 1.5-1 5.2-3.2 8.2-4.7 20.2-10.4 50.6-35.2 68.5-55.7 8.9-10.2 25.5-32.1 25.5-33.6 0-.3 1.1-2.1 2.5-3.9 1.4-1.8 2.5-3.7 2.5-4.3 0-.5.6-1.6 1.3-2.3.6-.7 2.1-3.1 3.2-5.3 1.1-2.2 2.2-4.2 2.5-4.5 1-1 8.1-15.6 8-16.6 0-.6.7-1.7 1.5-2.4.9-.7 1.3-1.5 1-1.8-.3-.3.1-1.5.8-2.6 1.2-1.9 3.7-8.4 8.8-22.1 3.8-10.3 8.9-28.1 10.3-35.6.2-1.3.5-2.4.6-2.4.1 0 .4-1.1.6-2.5 1-5.2 1.3-6.5 1.4-6.5.2 0 .7-2.4 1.4-7 .4-2.3.8-5.2 1.1-6.5 1.5-7.7 3-20.5 4-33 .3-4.7.8-11 1.1-14 .3-4 .7-468.1.4-520v-6.5l-17.7.2c-9.8.1-19.4.2-21.3.2l-3.6.1.1 258.1c0 141.9-.3 258.6-.7 259.2-.4.6-.2 1.7.4 2.4.6.7.6 1.3.2 1.3-.5 0-.9 3.4-.9 7.5s-.3 7.5-.6 7.5-.6 1.9-.6 4.3c-.1 3.9-.5 7.9-1.8 16.7-.3 1.9-.8 5.3-1.1 7.5-.3 2.2-1.2 7.1-2 11-.9 3.8-1.8 8.1-2 9.5-1 5.6-6.8 25.6-7.7 26.8-.5.6-.7 1.2-.4 1.2.6 0-1.4 6.5-3.2 10.5-.5 1.1-1.9 4.7-3.2 8-2.4 6.5-13.8 30.7-14.8 31.5-.3.3-1.9 3.1-3.6 6.2-1.6 3.2-3.3 5.8-3.7 5.8-.5 0-.8.7-.8 1.5s-.4 1.5-.8 1.5c-.5 0-1.4 1-1.9 2.3-5 11-35.6 44-51.3 55.5-4.7 3.4-9 6.6-9.6 7-.5.5-2.1 1.5-3.5 2.2-1.3.7-2.6 1.6-2.9 1.9-.5.6-5.9 3.7-12.5 7-1.6.9-3.2 1.8-3.5 2.1-.3.3-5.8 2.9-12.2 5.8-17.3 7.6-45.7 16.7-58.3 18.6-1.6.2-3 .5-3 .6 0 .2-3.6.9-8.1 1.4-2.2.3-4.7.7-5.5 1-1.4.5-7.6 1.4-13.9 2.1-1.9.2-6 .7-9 1.1-3 .3-7.7.8-10.5.9-2.7.2-5 .4-5 .5 0 .1-4.3.3-9.6.4-5.4.2-10.1.5-10.5.8-1.3.5-44.2 0-55.9-.7-5.5-.4-11.2-.7-12.7-.8-1.6 0-2.8-.3-2.8-.6s-2.4-.6-5.2-.7c-5-.1-15.3-1-15.3-1.4 0-.2-1.9-.5-9.5-1.4-3-.3-6.2-.8-7-1.1-.8-.3-2.9-.7-4.5-.9-13.3-2-50.3-12.3-59-16.6-1.1-.5-4.4-1.9-7.3-3-15.4-5.9-49.3-25.3-51-29.2-.2-.5-.8-.8-1.4-.8-1.3 0-10.6-7.8-20.9-17.6-20.6-19.4-38.2-45.1-50.4-73.4-3.6-8.2-11.8-31.9-12.9-37-.3-1.4-1.3-5.2-2.1-8.5-.9-3.3-1.7-7.2-1.9-8.7-.3-1.5-.7-3.5-1-4.5-.3-1-.8-3.6-1.1-5.8-.4-2.2-.9-4.9-1.1-6-.6-3.7-2-13.8-3-22-.6-5.3-1.7-23.8-1.8-30.3 0-3.4-.4-6.2-.9-6.2-.4 0-.5-.5-.2-1 .8-1.3.9-43.9.2-44.7-.3-.3-.3-1.1 0-1.9.8-2.2.9-22.4 0-22.4-.5 0-.5-.5-.2-1 .6-.9.9-43.5.4-46.5-.1-.6 0-1.4.1-2 .4-2.3.2-45.7-.3-46.2-.3-.3-.3-1.1 0-1.9.8-2.2.9-22.4 0-22.4-.5 0-.5-.5-.2-1 .5-.8.9-91.3.4-94.5-.1-.6 0-1.5.1-2 .2-1.2.2-20.6-.1-22-.1-.6 0-1.4.1-2 .4-2.4.1-45.7-.4-46.2-.3-.3-.1-1.4.4-2.4.7-1.2.7-2 0-2.4-.6-.4-.8-1.1-.4-1.6.3-.6.6-24.4.5-52.9-.1-48.3.1-51.8 1.7-52.2 1.4-.3 111-.2 115.1.1.8.1 1.1.8.8 2.1-.3 1.1-.2 2.2.2 2.4.3.2.5 2.2.4 4.3-.2 2.1-.3 5.8-.3 8.3v9.2c0 .7.1 2.9.2 4.8.1 2-.1 4.1-.5 4.7-.4.6-.3 1.4.3 1.8.6.4.8 1.1.4 1.6-.9 1.6-1.1 7-.2 7.5.4.3.3 1.6-.2 2.9-.5 1.3-.6 2.6-.2 2.9.9.5.7 7-.3 8.5-.3.6-.2 1.1.3 1.1s.6 2 .2 4.5c-.4 2.4-.3 5 .1 5.7.4.6.4 1.9 0 2.7-.5.9-.5 2.5-.1 3.6s.4 3.2-.1 4.7c-.4 1.4-.5 2.8-.3 3.1.9.8 1 7.7.2 7.7-.5 0-.5.8 0 1.7.5 1 .6 2.7.2 3.8-.4 1.1-.4 2.9 0 4.1.5 1.1.5 2.7 0 3.4-.5.7-.5 2.3-.1 3.4.4 1.2.5 3.2.1 4.6-.4 1.4-.3 3.4.1 4.6.4 1.1.4 2.7-.1 3.4-.4.7-.5 2.3 0 3.4.4 1.1.4 3.3 0 4.8-.5 1.4-.6 2.8-.4 3.1.9.8 1 7.7.2 7.7-.5 0-.4.9.2 2 .8 1.5.8 2-.2 2-.9 0-.9.3 0 1.2.7.7.8 1.7.2 2.9-.7 1.1-.7 2 0 2.4.6.4.7 1.3.1 2.3-.5.9-.5 2.6-.1 3.7s.4 3.1 0 4.5-.4 3.4 0 4.5.4 2.7 0 3.5c-.4.8-.4 2.4 0 3.5s.4 3.1 0 4.5-.4 3.4 0 4.5.4 2.9 0 4.1c-.5 1.1-.5 2.7 0 3.4.4.7.6 2.5.3 3.9-.8 4.3-.9 12.1-.1 12.1.4 0 .3 1.1-.2 2.5-.5 1.3-.6 2.6-.2 2.9.4.2.6 2.4.5 4.8-.8 9.7-.8 13.8-.1 13.8.4 0 .3 1.1-.2 2.5-.5 1.3-.6 2.6-.2 2.9.4.2.6 2.2.5 4.3-.6 8.3-.6 13.3 0 13.9.3.3.2 1.7-.3 3s-.6 2.5-.2 2.8c.4.2.6 2.4.5 4.8-.8 9.7-.8 13.8-.1 13.8.4 0 .3 1.1-.2 2.5s-.5 2.7 0 3c.5.3.5 1.8.1 3.3-.5 1.5-.4 3.7 0 5 .5 1.2.5 2.2.1 2.2-.8 0-.8 6.8.1 7.6.3.3.2 1.7-.3 3s-.6 2.5-.2 2.8c.9.5.6 8.2-.4 9.8-.4.7-.3.8.4.4.9-.5.9-.1.3 1.7-.5 1.3-.5 3-.1 3.7.5.8.4 2.2-.1 3.2-.7 1.2-.6 1.8.1 1.8s.8.6.2 1.7c-.5 1-.6 2.7-.2 3.8.4 1.1.4 3.4 0 5.1-.4 1.8-.4 3.8.1 4.5.4.7.4 2 0 2.8-.5.9-.5 2.5-.1 3.6s.4 3.1 0 4.5-.4 3.4 0 4.5.4 2.9 0 4.1c-.5 1.1-.5 2.7 0 3.4.4.7.4 2.4 0 3.9-.4 1.4-.4 3.5 0 4.6.4 1.1.4 2.7 0 3.5-.4.8-.4 2.4 0 3.5s.4 2.9 0 4.1c-.5 1.1-.4 2.7 0 3.4.5.8.5 2.1 0 3-.5.9-.5 2.1-.2 2.7.9 1.4.7 7.7-.3 9.2-.3.6-.2 1.1.4 1.1.7 0 .7.8.2 2.3-.5 1.3-.5 3 0 3.9.5.9.6 1.9.1 2.2-.6.4-.8 5.5-.2 6.3.5.7.3 6.1-.3 7.6-.3.9-.2 1.7.2 1.7.5 0 .5 1.5.1 3.4s-.4 4 .1 4.7c.4.7.4 2-.1 3-.5.9-.6 1.9-.3 2.3.4.3.5 2.8.4 5.4-.1 2.6-.3 6.4-.4 8.5-.1 2 0 3.7.3 3.7s.5 3.9.6 8.8c.1 8.4.9 19.1 2 24.9.3 1.5.7 4.1.9 5.8.1 1.6.5 3.7.8 4.5.4 1.2 2.9 12.1 3.2 14 0 .3.4 1.1.8 1.7.5.7.6 1.3.2 1.3-.3 0-.1.9.5 2.1.7 1.1 1.4 3.1 1.6 4.4.2 1.2 1.1 3.6 1.9 5.1.8 1.6 1.5 3.3 1.5 3.7 0 1.7 10 20.8 13.6 25.8 8.5 12.1 27.2 31.9 30.2 31.9.4 0 1.9 1.1 3.4 2.5s2.9 2.5 3.2 2.5c.3 0 2.9 1.5 5.8 3.3 4.5 2.9 9.6 5.5 21.3 10.7 5.4 2.5 23.3 8.2 29.5 9.4 1.4.3 3.5.7 4.6 1 4 .8 9.9 1.8 13.4 2.1 1.9.2 3.5.4 3.5.5 0 .4 4.8 1 12 1.6 14 1.2 59 .7 59-.6 0-.1 1.9-.3 4.2-.5 16-1.3 43.3-8.7 58-15.6 3.8-1.7 7.4-3.2 8.1-3.2.6 0 1.2-.4 1.2-.8s1.2-1.2 2.8-1.8c1.5-.6 3.6-1.6 4.7-2.3 1.1-.7 4.5-2.9 7.5-4.8s5.7-3.8 5.8-4.2c.2-.5.8-.8 1.3-.8 2.7 0 22-18.3 29.5-28.2 5.1-6.5 13.4-19.8 15.5-24.5.8-1.8 1.7-3.3 2.1-3.3.5 0 .7-.3.6-.8-.1-.7.4-2.3 2.7-7.7.6-1.7 1.7-4.4 2.3-6 .5-1.7 1.4-3.9 1.8-5 .4-1.1.9-2.5.9-3 .1-.6.5-1.8.9-2.7.4-.9.5-2.1.2-2.7-.4-.5-.2-1.2.3-1.5.5-.3 1.2-2 1.5-3.8.3-1.8.8-4.4 1.1-5.8.3-1.4.8-4.1 1.1-6 .2-1.9.7-4.6.9-6 1.6-8.5 1.8-42.4 1.9-253 .1-208 .2-233.6 1.6-234.1 1.2-.4 30.7-.5 34.5 0 .7.1 1 79 .9 234.8-.1 209.5-.4 245.1-1.8 258.3-1.2 10.4-1.7 13.8-2.5 16.7-.5 1.7-.7 3.4-.4 3.7.3.2.1 1.1-.3 1.8s-.9 1.9-1 2.8c-.4 3.3-1.5 8-2.5 10.7-.6 1.5-1 2.9-.9 3.1.3.5-1.3 6.6-2 8.2-.5.8-2.3 5.5-4.1 10.5-8.1 22.7-20.7 42.5-37.8 59.5-15.9 15.8-32.3 26.8-53.6 36-6.6 2.9-20 7.8-22.8 8.5-1.2.2-4.6 1.1-7.6 2-2.9.8-5.7 1.2-6.1 1-.5-.3-1-.1-1.2.4-.1.5-2.1 1.2-4.3 1.5-2.2.4-5.6 1.1-7.5 1.6-1.9.5-6 1.2-9 1.5-3 .3-6.2.8-7 1-2.9.7-11.6 1.7-20 2.2-12.2.7-51 1-51 .3 0-.3-2.4-.5-5.3-.6-2.8 0-8.6-.4-12.7-.8s-8.9-.9-10.5-1.1c-1.7-.1-4.4-.5-6-.9-1.7-.4-4.3-.9-6-1.1-12.9-2.2-30-6.8-41.7-11.1-3.7-1.4-7-2.5-7.2-2.5-.3 0-4.6-2-9.6-4.5-5-2.4-9.3-4.4-9.6-4.4-.3 0-1.2-.7-2.1-1.5-.8-.8-1.9-1.3-2.4-1-.5.4-.9.2-.9-.2 0-.5-1.7-1.7-3.7-2.8-2.1-1.1-4.2-2.5-4.6-3.2-.4-.7-1.3-1.3-1.8-1.3-3.5 0-25.8-19.8-34.4-30.6-2.2-2.7-4.2-5.1-4.5-5.4-1-.9-8-11-8-11.5 0-.2-1.5-2.8-3.4-5.7-5.8-9.1-15.2-31-17.1-39.8 0-.3-.6-2.1-1.3-4-.6-1.9-1.4-5.1-1.8-7-.8-4.5-1.2-6.5-1.4-6.5-.4 0-1.6-7-2.6-14.5-.5-3.8-1.2-7.5-1.4-7.5-.2 0-1.1-14.2-1.3-19.7-.1-2.7-.5-4.8-.9-4.8s-.4-1 .1-2.3c.5-1.3.5-3 0-3.9-.6-1-.6-1.9 0-2.2.5-.3.5-2.1.1-4.1-.5-2.1-.4-3.5.2-3.5.5 0 .6-.5.3-1.1-1.1-1.6-1.2-6.9-.2-6.9.4 0 .5-.5.1-1.1-1-1.6-1.1-22.9-.1-22.9.5 0 .5-.6 0-1.2-.9-1.7-1-4.9-.1-6.9.4-.9.4-1.9.1-2.3-.8-.8-.7-21.1.2-22.5.3-.6.3-1.1-.2-1.1-.9 0-.9-21.3 0-22.7.4-.6.4-1.3 0-1.6-.8-.9-.7-21.2.1-22.6.4-.6.4-1.1-.1-1.1-1 0-.8-69.4.2-70.9.3-.6.3-1.1-.2-1.1-.4 0-.8-4.9-.8-11 0-6 .4-11 .8-11 .5 0 .5-.5.2-1.1-1-1.5-1.1-70.9-.2-70.9.5 0 .5-.5.1-1.1-1-1.6-1.1-22.9-.1-22.9.5 0 .5-.5.2-1-1-1.6-1.1-39-.2-39 .5 0 .5-.5.1-1.1-.8-1.4-.9-22.3-.1-23.7.4-.5.4-1.2 0-1.5-.3-.4-.5-12.2-.5-26.4s-.3-26-.8-26.3c-.4-.3-10.1-.4-21.4-.2l-20.7.3.4 226.2c.2 124.4.6 229.1 1 232.7.4 3.6.9 7.8 1.1 9.5.3 1.6.8 5.7 1.2 9 .3 3.3.8 6.9 1.1 8 .7 3.2 2 9.9 2.8 14.2.3 1.6.8 3.9 1.2 5.3.4 1.4.8 2.9.8 3.5.2 1.5 5.3 19 6.2 21.5.3.8.7 1.9.8 2.5 1.3 5.2 11.5 27.6 17.4 38 4 7.1 14.5 22.5 15.3 22.5.4 0 .8.7.8 1.5s6.2 7.6 13.8 15.3c12.7 12.9 16.6 16.4 22.2 20.2 1.3.8 2.8 2.1 3.6 2.7.7.7 1.5 1.3 1.8 1.3.2 0 3.1 1.7 6.3 3.8 12.7 8.4 32.8 17.8 49.3 23.1 10.2 3.2 24.3 6.9 28.7 7.5 1.6.2 3.5.6 4.3.9.8.3 3.5.9 6 1.2 10.2 1.4 12.6 1.7 14.5 1.9 1.2.1 2.5.4 3 .7.6.3 2.9.5 5.2.5 2.4-.1 4.3.1 4.3.4 0 .3 2.1.6 4.8.7 11 .3 20.3 1.1 20.9 1.6.3.4 1.4.2 2.4-.4 1.1-.5 1.9-.6 1.9-.2 0 1 45.1 1 46.8 0 .7-.5 1.2-.3 1.2.3s.5.8 1.1.4c.6-.4 3.9-.8 7.3-.9 6.6-.3 18.9-1.4 24.6-2.1 1.9-.3 4.9-.6 6.5-.8 5.7-.7 12-1.7 13.6-2.2 1-.3 3-.6 4.5-.8 1.6-.2 6.1-1.2 9.9-2.1 3.9-.9 8-1.9 9.2-2.1 1.2-.2 3.5-.9 5-1.5 1.6-.6 2.9-1 3.1-.9.2.1 1.5-.2 3-.8 1.5-.5 5.2-1.7 8.2-2.7 11.2-3.6 35.6-14.8 37.2-17 .4-.6.8-.6.8-.2 0 .4.6.3 1.3-.3.6-.6 4.1-3 7.7-5.3 6.8-4.3 16.8-11.9 20.8-15.7 1.2-1.1 2.7-1.8 3.4-1.4.6.4.8.3.4-.4-.3-.6 2.3-4.1 6.1-7.9 3.8-3.7 8.4-8.8 10.3-11.2 1.9-2.4 4.2-5 5-5.9.8-.8 1.9-2.3 2.5-3.2.5-.9 3.7-5.7 7-10.6 8.3-12.5 21.7-39.3 23.1-46.4.2-.8.7-2.3 1.3-3.5.9-1.8 3.4-9.3 3.6-10.5 0-.3.3-1 .6-1.5.4-.6 1.4-4.4 2.3-8.5 1-4.1 2-8.2 2.3-9 .3-.8.7-2.2.8-3 .2-1.4 1.9-9.9 2.9-14.5.7-3.6 2.5-18 3.1-25 .2-2.2.4-4 .5-4 .8 0 1-46.4 1.2-273.3l.3-257.2-2.2-.1c-15.3-.4-119.5 0-120.1.5-.3.4-.7 117.1-.8 259.4-.1 142.3-.4 259.6-.7 260.7-.2 1.1-.8 4.2-1.1 7-3.7 27.3-18.3 54.9-37.6 70.5-2.3 1.9-4.7 4-5.4 4.5-6.9 6.5-36.7 19.7-49 21.9-1.6.3-5.2 1-8 1.5-14.3 2.8-19.3 3.2-42.1 3.7-14.8.2-20.1 0-20.7-.9-.6-.9-.8-.9-.8.1 0 .7-.4 1-1 .7-.5-.3-4-.8-7.7-1.1-3.8-.3-7.9-.7-9.3-.9-1.4-.3-4.5-.8-7-1.1-2.5-.3-4.6-1-4.8-1.4-.2-.5-.9-.7-1.6-.4-1.3.5-18.9-4.1-21.1-5.4-.5-.4-1.5-.7-2-.8-2.5-.4-16.9-7.9-22.3-11.7-5.3-3.7-14.3-11.8-17.8-16-9.4-11.3-18.8-31-20.9-44.2-.2-1.1-.4-2-.5-2-.3 0-1.5-6.5-2.5-14.5-1.4-9.6-1.8-23.9-1.9-62.2-.1-25.8.3-43.4.8-43.1.5.4.6 0 .1-.8-1.2-1.8-1.2-23.9-.1-23.2.5.4.6 0 .1-.8-1.1-1.7-1.4-118.8-.3-121 .4-.9.4-1.9.1-2.3-1.1-1.1-.9-263 .2-263.8.6-.5.6-.8-.1-.8s-1-2.2-.8-6c.2-4.1-.1-6-.9-6.1-7-.3-200.1-.3-200.7.1z"/></svg>